<?xml version="1.0" encoding="UTF-8"?>
<svg version="1.1" xmlns="http://www.w3.org/2000/svg" width="466" height="466">
<path d="M0 0 C153.78 0 307.56 0 466 0 C466 153.78 466 307.56 466 466 C312.22 466 158.44 466 0 466 C0 312.22 0 158.44 0 0 Z " fill="#12AFFA" transform="translate(0,0)"/>
<path d="M0 0 C9.14333182 0.89856882 16.23530572 9.91943814 21.9921875 16.3984375 C23.99936554 18.99917792 25.39901324 21.5733291 26.875 24.5 C28.88823288 28.12455418 28.88823288 28.12455418 32.53125 29.82421875 C34.42711413 30.06641018 36.32741372 30.27609663 38.23046875 30.453125 C42.85646775 31.36658037 46.14413515 34.32583577 49 38 C49 38.99 49 39.98 49 41 C50.918125 40.9690625 50.918125 40.9690625 52.875 40.9375 C67.32479222 41.0269724 82.55829435 43.59022516 94 53 C94.93005859 53.67482422 94.93005859 53.67482422 95.87890625 54.36328125 C102.90541276 59.75077545 107.67140805 68.15419543 109.625 76.75 C111.07911953 89.35236929 109.22596101 105.25663999 102 116 C99.3984375 116.8828125 99.3984375 116.8828125 97 117 C96.67 116.67 96.34 116.34 96 116 C96.37863397 110.32049052 98.15399137 105.30445797 100.0625 99.96484375 C102.81662914 91.25491035 103.85102284 80.32207281 99.9609375 71.828125 C99.64382813 71.22484375 99.32671875 70.6215625 99 70 C98.68289063 69.33484375 98.36578125 68.6696875 98.0390625 67.984375 C92.83277564 58.31028168 83.34549158 54.14449738 73.25 51 C65.66819562 49.03918852 57.78636514 48.56155701 50 48 C49.7525 49.051875 49.505 50.10375 49.25 51.1875 C48.44903673 54.13799092 47.94312654 55.06032333 45.74609375 57.390625 C43.79724307 59.73992313 43.79724307 59.73992313 44.09814453 61.89257812 C44.63943361 64.22705264 45.31780616 66.47220768 46.0625 68.75 C49.05455468 78.61050576 49.05455468 78.61050576 49.6640625 83.74609375 C49.75679443 84.4947168 49.84952637 85.24333984 49.94506836 86.01464844 C50.17357646 88.06270693 50.35966509 90.11537057 50.54296875 92.16796875 C51.7173332 96.94412107 55.35514799 99.02244954 59.15454102 101.81958008 C64.16772498 105.66108553 68.45784181 110.25057382 72.875 114.75 C73.79796875 115.68199219 74.7209375 116.61398438 75.671875 117.57421875 C77.37589135 119.29552222 79.07782685 121.01889034 80.77685547 122.74511719 C82.84188313 124.8396258 84.91751429 126.92286467 87 129 C87.268125 128.236875 87.53625 127.47375 87.8125 126.6875 C88.94424112 124.12619116 89.91223401 122.80307062 92 121 C93.98 121.99 93.98 121.99 96 123 C95.46884894 127.51478398 93.63379708 130.34666857 91 134 C92.62687336 137.47785682 94.66148112 140.59472382 96.75 143.8125 C104.6451801 156.34055303 109.37667696 169.76156991 109.25 184.625 C109.26160156 185.99785156 109.26160156 185.99785156 109.2734375 187.3984375 C109.25918058 192.3313332 108.93564118 196.3759683 107 201 C105.34385343 201.38218767 103.67542976 201.71395102 102 202 C101.67 201.67 101.34 201.34 101 201 C101.09338801 199.22562779 101.25185106 197.45460286 101.4375 195.6875 C103.11666759 176.79126741 99.55189305 160.29130026 88.1015625 144.671875 C87 143 87 143 87 141 C83.6448318 144.34842414 80.30709389 147.71307964 76.98046875 151.08984375 C75.54205024 152.54302202 74.10266033 153.9952304 72.6628418 155.44702148 C71.68283222 156.43708577 70.70462555 157.42893806 69.72827148 158.42260742 C60.50709342 167.80226234 60.50709342 167.80226234 55.4765625 170.95703125 C51.20674306 174.00456372 50.58113734 177.56722492 49.66601562 182.5703125 C49.50810547 183.61960937 49.35019531 184.66890625 49.1875 185.75 C48.83108688 187.82886054 48.47044814 189.90700129 48.10546875 191.984375 C47.9357959 192.99177734 47.76612305 193.99917969 47.59130859 195.03710938 C46.84945742 198.75432897 45.73432478 202.2787014 44.48168945 205.85253906 C43.92681197 208.32628582 44.11032734 209.6418908 45 212 C45.99 213.2065625 45.99 213.2065625 47 214.4375 C49.11177771 217.14321519 49.46932955 218.68883752 50 222 C66.47990792 220.81145982 82.80050568 219.26777053 94.56640625 206.26953125 C95.27603516 205.64111328 95.27603516 205.64111328 96 205 C98.6875 205.3125 98.6875 205.3125 101 206 C101.33 206.99 101.66 207.98 102 209 C95.63011185 219.00982423 83.28002642 224.15008831 72.09765625 226.6484375 C66.70304632 227.62669791 61.47659972 228.06009554 56 228.25 C51.04776186 228.45728638 51.04776186 228.45728638 47.5 231.8125 C47.005 232.864375 46.51 233.91625 46 235 C40.27141574 240.04660995 40.27141574 240.04660995 37.08203125 239.9296875 C34.41442781 239.8654079 32.51377262 240.07299415 30 241 C27.96169156 243.42567928 26.54660233 245.99850988 24.984375 248.75390625 C18.43665283 259.46484547 8.82458873 268.48274138 -3 273 C-5.91015625 272.6953125 -5.91015625 272.6953125 -8 272 C-8 270.35 -8 268.7 -8 267 C-6.83984375 266.47212891 -6.83984375 266.47212891 -5.65625 265.93359375 C8.11298431 259.40684036 17.4380609 249.93118301 24 236 C23.360625 235.29875 22.72125 234.5975 22.0625 233.875 C19.83613898 230.77158767 19.34919057 228.75379861 19 225 C16.36 224.34 13.72 223.68 11 223 C11 221.35 11 219.7 11 218 C14.153368 217.29925156 16.72724974 217 20 217 C21.21181072 215.52617615 22.41953918 214.04818439 23.58203125 212.53515625 C26.62600027 209.23961954 30.57767156 208.09078692 34.9375 207.8125 C35.618125 207.874375 36.29875 207.93625 37 208 C37.6721567 205.00114704 38.33799215 202.00110225 39 199 C39.26425781 197.80890625 39.52851563 196.6178125 39.80078125 195.390625 C40.07277344 194.14796875 40.34476562 192.9053125 40.625 191.625 C40.88539063 190.44164062 41.14578125 189.25828125 41.4140625 188.0390625 C42.09465774 185.02488052 42.09465774 185.02488052 42 182 C40.46279297 183.03060547 40.46279297 183.03060547 38.89453125 184.08203125 C37.53389567 184.99224954 36.17321627 185.90240233 34.8125 186.8125 C34.13896484 187.26431641 33.46542969 187.71613281 32.77148438 188.18164062 C22.48773796 195.05419311 22.48773796 195.05419311 19.1875 194.6875 C18.1046875 194.3471875 18.1046875 194.3471875 17 194 C17.51946464 189.46149434 17.51946464 189.46149434 19.63891602 187.42602539 C20.33686279 186.98766357 21.03480957 186.54930176 21.75390625 186.09765625 C22.9130957 185.35032227 22.9130957 185.35032227 24.09570312 184.58789062 C24.90974609 184.08451172 25.72378906 183.58113281 26.5625 183.0625 C28.14863289 182.05574079 29.73327885 181.04663501 31.31640625 180.03515625 C32.09516113 179.54160645 32.87391602 179.04805664 33.67626953 178.53955078 C36.69729806 176.53801623 39.54650673 174.3483196 42.38647461 172.09936523 C44 171 44 171 46 171 C45.98839844 170.35417969 45.97679687 169.70835937 45.96484375 169.04296875 C45.90037878 162.31098447 46.07567791 155.59926119 46.375 148.875 C46.40585693 148.03348389 46.43671387 147.19196777 46.46850586 146.32495117 C46.76718248 140.23281752 46.76718248 140.23281752 49 138 C50.65 138.33 52.3 138.66 54 139 C54 146.92 54 154.84 54 163 C60.90643726 156.88286985 67.58659218 150.63342181 74 144 C74.65871094 143.33613281 75.31742187 142.67226562 75.99609375 141.98828125 C79.10708669 138.8391487 79.10708669 138.8391487 79.98828125 134.69140625 C78.62410337 130.97631312 76.21207022 128.53400623 73.5 125.75 C72.96117187 125.18297363 72.42234375 124.61594727 71.8671875 124.03173828 C70.25576881 122.34347172 68.63038913 120.66993215 67 119 C66.1234375 118.09507812 65.246875 117.19015625 64.34375 116.2578125 C61.00311823 112.86150354 57.82560505 109.86920379 54 107 C54 114.59 54 122.18 54 130 C52.35 130.33 50.7 130.66 49 131 C46.24249932 128.24249932 46.75107357 126.59892827 46.71875 122.7421875 C46.66074219 120.84339844 46.66074219 120.84339844 46.6015625 118.90625 C46.52501878 116.23889608 46.49745362 113.58398292 46.4921875 110.9140625 C46.29645543 103.63850093 46.29645543 103.63850093 42.90649414 97.43334961 C40.36619328 95.37242309 37.81796544 93.65643847 35 92 C33.81062253 91.21571564 32.62171847 90.43071214 31.43359375 89.64453125 C29.41565617 88.41061635 27.39475362 87.18153882 25.37109375 85.95703125 C23 84 23 84 22.16015625 81.26171875 C22.10730469 80.51535156 22.05445313 79.76898438 22 79 C24.1171875 78.26171875 24.1171875 78.26171875 27 78 C30.0078125 79.58203125 30.0078125 79.58203125 33.125 81.8125 C34.67574219 82.90498047 34.67574219 82.90498047 36.2578125 84.01953125 C37.16273438 84.67308594 38.06765625 85.32664062 39 86 C39.99 86.66 40.98 87.32 42 88 C41.51256056 80.40266804 39.97983442 73.33829931 38 66 C37.66354259 64.66745158 37.3288672 63.33444192 37 62 C36.43152344 61.99742187 35.86304688 61.99484375 35.27734375 61.9921875 C29.53175015 61.70442822 26.49593484 60.41399417 22.3125 56.47265625 C21 55 21 55 20 53 C17.03 53 14.06 53 11 53 C10.375 50.625 10.375 50.625 10 48 C12 46 12 46 14.9375 45.875 C18.05252461 45.37377509 18.05252461 45.37377509 18.953125 43.30078125 C19.433974 41.91706152 19.87224752 40.51763313 20.26171875 39.10546875 C21.11672812 36.66710869 22.37502847 34.99204499 24 33 C17.71400753 22.49060634 11.54198179 14.04612167 0.90625 7.703125 C-1 6 -1 6 -1.34375 3.359375 C-1 1 -1 1 0 0 Z " fill="#F50725" transform="translate(249,98)"/>
<path d="M0 0 C4.70588235 0.70588235 4.70588235 0.70588235 6 2 C6.15795161 3.55284651 6.25111647 5.11238206 6.31640625 6.671875 C6.3793689 8.12581665 6.3793689 8.12581665 6.44360352 9.60913086 C6.48283936 10.64561768 6.5220752 11.68210449 6.5625 12.75 C6.6049585 13.7922876 6.64741699 14.8345752 6.69116211 15.90844727 C6.97568605 23.27687304 7.12738264 30.62596026 7 38 C7.56082275 38.26570801 8.12164551 38.53141602 8.69946289 38.80517578 C11.18969563 40.09852175 13.47283018 41.56213556 15.80859375 43.1171875 C17.17661133 44.02791016 17.17661133 44.02791016 18.57226562 44.95703125 C19.51779297 45.58996094 20.46332031 46.22289062 21.4375 46.875 C22.37916016 47.50019531 23.32082031 48.12539063 24.29101562 48.76953125 C28.66816543 51.69174982 32.97406757 54.59804436 37 58 C36.67 59.32 36.34 60.64 36 62 C34.26391602 62.65356445 34.26391602 62.65356445 32 63 C29.94116211 62.04370117 29.94116211 62.04370117 27.77734375 60.54296875 C26.99166016 60.00736328 26.20597656 59.47175781 25.39648438 58.91992188 C24.58501953 58.34822266 23.77355469 57.77652344 22.9375 57.1875 C22.12216797 56.62740234 21.30683594 56.06730469 20.46679688 55.49023438 C18.95041981 54.44733577 17.43757418 53.39927072 15.92944336 52.34448242 C14.3003148 51.20926655 12.65215418 50.10143612 11 49 C11.95495635 56.16778999 13.07812936 63.02143915 15.4140625 69.87890625 C16 72 16 72 16 76 C17.19625 75.9175 18.3925 75.835 19.625 75.75 C24.11394216 75.75 26.52520264 77.09086733 30 80 C30.4125 80.7115625 30.825 81.423125 31.25 82.15625 C32.93740285 84.356569 32.93740285 84.356569 36.13671875 84.171875 C37.30847656 84.03265625 38.48023438 83.8934375 39.6875 83.75 C41.45673828 83.55664062 41.45673828 83.55664062 43.26171875 83.359375 C44.61716797 83.18148437 44.61716797 83.18148437 46 83 C46.33 84.65 46.66 86.3 47 88 C40.40977881 90.97206054 40.40977881 90.97206054 37.25 91.1875 C34.88306318 91.75283517 34.88306318 91.75283517 34.1328125 93.6953125 C33.6370044 95.08050833 33.18182367 96.4810908 32.7734375 97.89453125 C31.88541151 100.31193533 30.61769445 102.01139771 29 104 C30.41435782 106.06411622 31.83139852 108.12630317 33.25 110.1875 C33.64574219 110.76564453 34.04148437 111.34378906 34.44921875 111.93945312 C43.16035993 124.57774812 52.83625358 132.39192448 68.125 135.25 C69.74830051 135.51080728 71.37277922 135.76488825 73 136 C73.38218767 137.65614657 73.71395102 139.32457024 74 141 C72.39739862 142.60260138 70.71501415 142.20898122 68.5 142.25 C55.36905845 142.08189406 44.35262569 134.68642922 35.40380859 125.55517578 C30.72512402 120.37200695 26.12459297 114.24918594 23 108 C21.07193659 107.68344336 21.07193659 107.68344336 18.8125 107.625 C12.9261904 107.08308578 9.58879878 104.80350131 5.6875 100.375 C4 98 4 98 3 96 C1.88625 95.98582031 0.7725 95.97164063 -0.375 95.95703125 C-12.94054848 95.62727047 -25.23399281 94.01328469 -36 87 C-35.67 85.35 -35.34 83.7 -35 82 C-30.57425213 82.40234072 -26.91059113 83.36559127 -22.75 84.9375 C-14.42027734 87.85927772 -5.74066031 88.30513579 3 89 C3.061875 88.319375 3.12375 87.63875 3.1875 86.9375 C4.02894156 83.89536512 4.67427112 83.20556887 6.7265625 80.98828125 C8.61910921 78.46829194 9.01743098 77.35881863 8.86230469 74.16552734 C8.17152454 70.78774708 7.31915816 67.50333833 6.375 64.1875 C5.77281544 61.93253851 5.17636775 59.67603644 4.5859375 57.41796875 C4.29686523 56.33692871 4.00779297 55.25588867 3.70996094 54.14208984 C2.86214038 50.38987161 2.56865573 46.75877075 2.49072266 42.91918945 C2.1939761 40.82159387 2.1939761 40.82159387 0.15039062 39.8894043 C-0.55923828 39.59590088 -1.26886719 39.30239746 -2 39 C-4.09325591 37.20102145 -6.11816488 35.38964766 -8.125 33.5 C-8.66253906 33.00113281 -9.20007813 32.50226563 -9.75390625 31.98828125 C-11.86763446 30.02214504 -13.95863889 28.04136111 -16 26 C-15.625 23.875 -15.625 23.875 -15 22 C-11.65781368 21.62007118 -10.33045204 21.76463829 -7.54296875 23.75 C-6.37701172 24.86375 -6.37701172 24.86375 -5.1875 26 C-4.39730469 26.7425 -3.60710937 27.485 -2.79296875 28.25 C-2.20128906 28.8275 -1.60960937 29.405 -1 30 C-1.00523682 29.12674072 -1.01047363 28.25348145 -1.01586914 27.35375977 C-1.03287751 24.12410727 -1.04543369 20.89447755 -1.05493164 17.66479492 C-1.0599708 16.26504772 -1.06680216 14.8653058 -1.07543945 13.46557617 C-1.0875232 11.45754223 -1.09269807 9.44947043 -1.09765625 7.44140625 C-1.10289307 6.23170166 -1.10812988 5.02199707 -1.11352539 3.77563477 C-1 1 -1 1 0 0 Z " fill="#F50725" transform="translate(162,231)"/>
<path d="M0 0 C0.495 2.475 0.495 2.475 1 5 C-1.61622796 6.74415198 -3.20310562 7.45897171 -6.125 8.3125 C-16.58395979 11.70229316 -24.34247122 17.50195899 -30 27 C-34.7046017 38.20143261 -32.22836817 51.97270329 -28 63 C-25.29957583 68.8861254 -22.18310397 74.55096109 -18.96801758 80.16918945 C-18 82 -18 82 -17 85 C-13.56008637 81.56705132 -10.13861365 78.11694797 -6.7265625 74.65625 C-5.21205164 73.12698284 -3.69657406 71.59868101 -2.18066406 70.07080078 C-1.14532617 69.02538898 -0.11178822 67.97819144 0.91992188 66.92919922 C2.42876968 65.39584465 3.94339212 63.86849401 5.4609375 62.34375 C5.94639038 61.85241577 6.43184326 61.36108154 6.93200684 60.8548584 C9.48210022 58.32267267 11.92533025 56.31559542 15.0546875 54.5625 C19.73784618 50.48802773 19.87321958 45.44715403 20.75 39.5 C21.11112079 37.2590022 21.48062211 35.01933526 21.859375 32.78125 C22.00858398 31.79189453 22.15779297 30.80253906 22.31152344 29.78320312 C23.06267143 26.74664741 24.27035921 24.58914103 26 22 C27.98 22.495 27.98 22.495 30 23 C31.34146152 26.70456592 30.62042409 29.20890534 29.5625 32.9375 C28.48339185 36.76518855 27.81659762 40.01650031 28 44 C28.45850342 43.66154053 28.91700684 43.32308105 29.3894043 42.97436523 C31.47772032 41.44627128 33.58206401 39.94190639 35.6875 38.4375 C36.40873047 37.90447266 37.12996094 37.37144531 37.87304688 36.82226562 C43.3241843 32.96415467 43.3241843 32.96415467 47.01953125 33.16015625 C47.67308594 33.43730469 48.32664062 33.71445313 49 34 C49.23510742 36.31420898 49.23510742 36.31420898 49 39 C47.42700195 40.60571289 47.42700195 40.60571289 45.23828125 41.97265625 C44.05395508 42.73352539 44.05395508 42.73352539 42.84570312 43.50976562 C42.00974609 44.02216797 41.17378906 44.53457031 40.3125 45.0625 C38.68234855 46.09308509 37.05340955 47.12559089 35.42578125 48.16015625 C34.27070068 48.88549561 34.27070068 48.88549561 33.09228516 49.62548828 C30.7975359 51.08583898 30.7975359 51.08583898 28.04296875 53.37109375 C26 55 26 55 24 55 C24.01160156 55.6084375 24.02320313 56.216875 24.03515625 56.84375 C24.09607631 62.76169895 23.93895223 68.65406558 23.625 74.5625 C23.59414307 75.26503906 23.56328613 75.96757812 23.53149414 76.69140625 C23.23350621 81.76649379 23.23350621 81.76649379 21 84 C19.35 83.67 17.7 83.34 16 83 C16 76.4 16 69.8 16 63 C10.39125428 67.94889328 4.92267644 72.97202973 -0.375 78.25 C-0.87418945 78.74467773 -1.37337891 79.23935547 -1.88769531 79.74902344 C-7.61998634 84.79154743 -7.61998634 84.79154743 -10.0390625 91.5 C-8.2984774 95.68787392 -5.0247324 98.36026348 -1.8359375 101.5 C0 104 0 104 -0.2265625 106.8125 C-0.60941406 107.8953125 -0.60941406 107.8953125 -1 109 C-4.45899743 108.70613827 -5.81948459 108.17017492 -8.38671875 105.75 C-9.14597656 104.8425 -9.90523437 103.935 -10.6875 103 C-13.44820962 99.50290207 -13.44820962 99.50290207 -17 97 C-17.26167969 97.71285156 -17.52335937 98.42570312 -17.79296875 99.16015625 C-19.05763419 102.13559888 -20.59886448 104.69796295 -22.3125 107.4375 C-30.37356455 121.03528739 -34.84862614 137.00389669 -30.98046875 152.73828125 C-29.21855952 156.80260574 -26.38314702 160.11992839 -23.58203125 163.51953125 C-22 166 -22 166 -22.26171875 168.32421875 C-22.50535156 168.87722656 -22.74898437 169.43023437 -23 170 C-24.32 170.33 -25.64 170.66 -27 171 C-37.84970191 159.54076427 -39.83147336 149.80546378 -39.52734375 134.31640625 C-38.76209671 120.44656864 -32.42188989 107.54518827 -23.97509766 96.703125 C-22.53275858 94.87273324 -22.53275858 94.87273324 -21 92 C-21.35936442 89.35925978 -21.35936442 89.35925978 -23 87 C-23.57234375 86.06285156 -24.1446875 85.12570313 -24.734375 84.16015625 C-25.39953125 83.13792969 -26.0646875 82.11570312 -26.75 81.0625 C-36.01314228 66.31157409 -42.45744588 49.09960101 -39.3125 31.5 C-36.30405467 19.48711065 -28.16758282 10.71925758 -17.77734375 4.4765625 C-11.97341162 1.3909277 -6.65261431 -0.51173956 0 0 Z " fill="#F30826" transform="translate(145,142)"/>
<path d="M0 0 C1.20785156 -0.01417969 2.41570312 -0.02835937 3.66015625 -0.04296875 C6.72492498 0.17255134 8.37745415 0.57230898 10.9375 2.1875 C10.6075 3.8375 10.2775 5.4875 9.9375 7.1875 C9.00550781 7.12949219 8.07351562 7.07148437 7.11328125 7.01171875 C-6.20237334 6.54048729 -16.25191586 9.6372442 -26.4921875 18.59375 C-33.07361945 25.235195 -45.0625 38.09194233 -45.0625 48.1875 C-43.33580078 48.51621094 -43.33580078 48.51621094 -41.57421875 48.8515625 C-28.86165258 51.35420585 -16.19559303 54.41513549 -4.1875 59.375 C0.52798442 61.17797934 4.92184929 58.83681306 9.375 57.125 C13.85599963 55.42932118 17.18371486 54.76494132 21.9375 55.1875 C22.4325 57.6625 22.4325 57.6625 22.9375 60.1875 C21.1472939 60.85807887 19.35528511 61.5238469 17.5625 62.1875 C16.56476563 62.55875 15.56703125 62.93 14.5390625 63.3125 C11.9375 64.1875 11.9375 64.1875 9.9375 64.1875 C9.9375 64.8475 9.9375 65.5075 9.9375 66.1875 C11.113125 66.5175 12.28875 66.8475 13.5 67.1875 C18.22024344 68.74834727 22.50274311 70.91533533 26.875 73.25 C27.53765869 73.60255859 28.20031738 73.95511719 28.88305664 74.31835938 C31.53537553 75.75954721 33.79178459 77.04178459 35.9375 79.1875 C35.5625 81.3125 35.5625 81.3125 34.9375 83.1875 C32.52824418 84.05068393 31.32611447 84.32759323 28.88208008 83.4465332 C28.16431396 83.04781006 27.44654785 82.64908691 26.70703125 82.23828125 C25.90330078 81.80193359 25.09957031 81.36558594 24.27148438 80.91601562 C23.02334961 80.21508789 23.02334961 80.21508789 21.75 79.5 C14.55057515 75.53140338 14.55057515 75.53140338 7.19921875 71.85546875 C6.52205811 71.53215576 5.84489746 71.20884277 5.1472168 70.87573242 C-0.21239988 69.20644069 -4.05765491 70.31407793 -8.94140625 72.77734375 C-10.02744141 73.31423828 -11.11347656 73.85113281 -12.23242188 74.40429688 C-13.35197266 74.97212891 -14.47152344 75.53996094 -15.625 76.125 C-17.8528957 77.24342154 -20.08327901 78.3569048 -22.31640625 79.46484375 C-23.29939697 79.96234131 -24.2823877 80.45983887 -25.29516602 80.97241211 C-27.93022213 82.12941911 -30.21015778 82.84142635 -33.0625 83.1875 C-34.0625 82.1875 -34.0625 82.1875 -34.125 79.625 C-34.104375 78.820625 -34.08375 78.01625 -34.0625 77.1875 C-30.6269212 75.37134089 -27.18871865 73.5602061 -23.75 71.75 C-22.77353516 71.23373047 -21.79707031 70.71746094 -20.79101562 70.18554688 C-19.85322266 69.69248047 -18.91542969 69.19941406 -17.94921875 68.69140625 C-17.08514404 68.23580322 -16.22106934 67.7802002 -15.33081055 67.31079102 C-13.0625 66.1875 -13.0625 66.1875 -10.0625 65.1875 C-23.05496915 60.22289797 -36.41878264 57.70571727 -50.0625 55.1875 C-50.25585938 55.88617188 -50.44921875 56.58484375 -50.6484375 57.3046875 C-50.90882813 58.21476562 -51.16921875 59.12484375 -51.4375 60.0625 C-51.82035156 61.41988281 -51.82035156 61.41988281 -52.2109375 62.8046875 C-53.0625 65.1875 -53.0625 65.1875 -55.0625 67.1875 C-57.1875 66.8125 -57.1875 66.8125 -59.0625 66.1875 C-59.47223093 60.58784391 -58.50961806 58.89744215 -56.0625 53.1875 C-63.9825 53.1875 -71.9025 53.1875 -80.0625 53.1875 C-80.3925 51.5375 -80.7225 49.8875 -81.0625 48.1875 C-80.0625 47.1875 -80.0625 47.1875 -77.47045898 47.07397461 C-76.34454346 47.07921143 -75.21862793 47.08444824 -74.05859375 47.08984375 C-72.84365234 47.09306641 -71.62871094 47.09628906 -70.37695312 47.09960938 C-69.09755859 47.10798828 -67.81816406 47.11636719 -66.5 47.125 C-65.21673828 47.12951172 -63.93347656 47.13402344 -62.61132812 47.13867188 C-59.42833978 47.15050455 -56.24544238 47.16698932 -53.0625 47.1875 C-52.76609619 46.26477295 -52.46969238 45.3420459 -52.16430664 44.39135742 C-46.4946715 27.9050685 -33.19472886 11.65592016 -17.75 3.6875 C-11.70131972 0.78025714 -6.69555495 0.03580511 0 0 Z " fill="#F30826" transform="translate(232.0625,92.8125)"/>
<path d="M0 0 C1.381875 0.45375 2.76375 0.9075 4.1875 1.375 C15.27679289 4.66878229 26.35865832 5.36101772 37.875 5.3125 C39.19258301 5.30976074 40.51016602 5.30702148 41.86767578 5.30419922 C50.95399343 5.20635176 59.23054488 4.4933957 68 2 C69.64516356 1.60139209 71.29088955 1.20508808 72.9375 0.8125 C73.948125 0.544375 74.95875 0.27625 76 0 C76 4.95 76 9.9 76 15 C63.66776412 21.16611794 51.22010217 22.49748971 37.5625 22.375 C36.27279297 22.38660156 34.98308594 22.39820313 33.65429688 22.41015625 C22.26222326 22.37592869 9.58581229 21.78020869 0 15 C0 10.05 0 5.1 0 0 Z " fill="#F70523" transform="translate(194,230)"/>
<path d="M0 0 C0.71542969 0.19335938 1.43085938 0.38671875 2.16796875 0.5859375 C23.79161194 6.23661787 45.12739619 6.65616177 67 2 C68.02480469 1.78730469 69.04960937 1.57460937 70.10546875 1.35546875 C72.07634619 0.93073702 74.03987685 0.4718815 76 0 C76 4.95 76 9.9 76 15 C66.15284897 19.69977663 55.84719809 21.56768413 45 22 C43.80890625 22.05285156 42.6178125 22.10570312 41.390625 22.16015625 C33.63463696 22.33926039 26.17957952 21.80447807 18.5 20.6875 C17.67564453 20.56987305 16.85128906 20.45224609 16.00195312 20.33105469 C3.32029744 18.32029744 3.32029744 18.32029744 0 15 C-0.07313567 12.46950598 -0.09247527 9.96695163 -0.0625 7.4375 C-0.05798828 6.72658203 -0.05347656 6.01566406 -0.04882812 5.28320312 C-0.03700864 3.52209987 -0.01907263 1.76103964 0 0 Z " fill="#F60623" transform="translate(194,253)"/>
<path d="M0 0 C1.175625 0.268125 2.35125 0.53625 3.5625 0.8125 C4.3978125 0.99167969 5.233125 1.17085937 6.09375 1.35546875 C8.10215981 1.80088222 10.10217595 2.28528544 12.09375 2.80078125 C31.13856166 7.32606871 52.10990441 6.24407692 70.79296875 0.5859375 C73 0 73 0 76 0 C76.92613677 12.82870938 76.92613677 12.82870938 73.875 16.6875 C53.99791282 25.37487302 26.37046286 23.85468971 6.12109375 17.87890625 C3.55756362 16.81667001 1.91657927 16.04147995 0 14 C-0.390625 10.64453125 -0.390625 10.64453125 -0.25 6.8125 C-0.21390625 5.54019531 -0.1778125 4.26789063 -0.140625 2.95703125 C-0.09421875 1.98121094 -0.0478125 1.00539062 0 0 Z " fill="#F70523" transform="translate(194,208)"/>
<path d="M0 0 C0 0.99 0 1.98 0 3 C-1.76715931 3.63531382 -3.53902018 4.25754959 -5.3125 4.875 C-6.79169922 5.39707031 -6.79169922 5.39707031 -8.30078125 5.9296875 C-17.3745977 8.55505784 -26.13955157 9.35973813 -35.5625 9.3125 C-36.69276611 9.30903564 -37.82303223 9.30557129 -38.98754883 9.30200195 C-51.12241917 9.14621704 -62.88701136 8.14570291 -74 3 C-73.9375 1.1875 -73.9375 1.1875 -73 -1 C-54.25432767 -10.28989071 -18.01855826 -12.01237217 0 0 Z " fill="#F80522" transform="translate(269,198)"/>
<path d="M0 0 C6.70464263 0.59862881 12.12311269 3.8320422 18.01171875 6.84960938 C24.20860721 10.01298381 24.20860721 10.01298381 31 10 C34.62239291 8.52578786 38.08507612 6.78576938 41.5625 5 C43.41337262 4.05345837 45.26872 3.11560433 47.12890625 2.1875 C47.94431885 1.76855469 48.75973145 1.34960938 49.59985352 0.91796875 C52.23155213 -0.08856027 54.20666413 -0.17394285 57 0 C57.495 2.475 57.495 2.475 58 5 C55.23116804 6.48293582 52.4596027 7.96068862 49.6875 9.4375 C48.50897461 10.06881836 48.50897461 10.06881836 47.30664062 10.71289062 C46.54931641 11.11572266 45.79199219 11.51855469 45.01171875 11.93359375 C44.31522217 12.30540771 43.61872559 12.67722168 42.90112305 13.06030273 C41 14 41 14 38 15 C38.85464844 15.27714844 39.70929688 15.55429687 40.58984375 15.83984375 C41.69457031 16.20207031 42.79929688 16.56429688 43.9375 16.9375 C45.03964844 17.29714844 46.14179688 17.65679687 47.27734375 18.02734375 C50 19 50 19 51 20 C51.04063832 21.66617115 51.042721 23.33388095 51 25 C45.44670402 26.90151769 41.09959546 24.30454848 36.05859375 22.09375 C30.50687302 19.80961347 26.54402657 19.81661396 20.7421875 21.75390625 C20.12601563 22.02074219 19.50984375 22.28757812 18.875 22.5625 C15.78686312 23.80015797 13.36935745 24.31587726 10 24 C9.67 22.35 9.34 20.7 9 19 C11.97 17.68 14.94 16.36 18 15 C16.19402344 14.16855469 16.19402344 14.16855469 14.3515625 13.3203125 C12.77593508 12.5887712 11.20042005 11.85698777 9.625 11.125 C8.8309375 10.76019531 8.036875 10.39539063 7.21875 10.01953125 C6.45820313 9.66503906 5.69765625 9.31054688 4.9140625 8.9453125 C3.8614624 8.45828857 3.8614624 8.45828857 2.78759766 7.96142578 C1 7 1 7 -1 5 C-0.625 2.375 -0.625 2.375 0 0 Z " fill="#F20927" transform="translate(204,293)"/>
<path d="M0 0 C0.66 0.33 1.32 0.66 2 1 C-0.97 3.97 -3.94 6.94 -7 10 C-7.66 9.67 -8.32 9.34 -9 9 C-6.21000549 5.51250686 -3.74764169 2.49842779 0 0 Z " fill="#2F9ADF" transform="translate(126,155)"/>
</svg>
