<?xml version="1.0" encoding="UTF-8"?>
<svg version="1.1" xmlns="http://www.w3.org/2000/svg" width="466" height="461">
<path d="M0 0 C153.78 0 307.56 0 466 0 C466 152.13 466 304.26 466 461 C312.22 461 158.44 461 0 461 C0 308.87 0 156.74 0 0 Z " fill="#000000" transform="translate(0,0)"/>
<path d="M0 0 C9.14333182 0.89856882 16.23530572 9.91943814 21.9921875 16.3984375 C23.99936554 18.99917792 25.39901324 21.5733291 26.875 24.5 C28.88823288 28.12455418 28.88823288 28.12455418 32.53125 29.82421875 C34.42711413 30.06641018 36.32741372 30.27609663 38.23046875 30.453125 C42.85646775 31.36658037 46.14413515 34.32583577 49 38 C49 38.99 49 39.98 49 41 C50.27746094 40.96261719 51.55492187 40.92523438 52.87109375 40.88671875 C58.09639168 40.88978584 62.9629934 41.73953572 68.0625 42.8125 C68.90876953 42.97814453 69.75503906 43.14378906 70.62695312 43.31445312 C82.76196709 45.79385073 95.35352228 50.92618588 102.69921875 61.4296875 C110.67468917 74.44534625 111.05510586 85.56745103 107.92578125 100.32421875 C106.41042051 106.34090424 104.44697869 111.82953197 101 117 C99.35 116.67 97.7 116.34 96 116 C96.51654849 110.31796661 98.14490375 105.32988326 100.0625 99.96484375 C103.15597405 90.18173208 103.56535588 79.29376018 99 70 C94.27954459 61.43324759 87.05406764 56.25229827 78 53 C77.36118896 52.75789795 76.72237793 52.5157959 76.06420898 52.26635742 C70.3702455 50.21102129 64.95335421 49.32121071 58.9375 48.8125 C58.07189453 48.73064453 57.20628906 48.64878906 56.31445312 48.56445312 C54.21050226 48.36684448 52.10535418 48.18204995 50 48 C49.7525 49.051875 49.505 50.10375 49.25 51.1875 C48.44903673 54.13799092 47.94312654 55.06032333 45.74609375 57.390625 C43.79724307 59.73992313 43.79724307 59.73992313 44.09814453 61.89257812 C44.63943361 64.22705264 45.31780616 66.47220768 46.0625 68.75 C49.05455468 78.61050576 49.05455468 78.61050576 49.6640625 83.74609375 C49.75679443 84.4947168 49.84952637 85.24333984 49.94506836 86.01464844 C50.17357646 88.06270693 50.35966509 90.11537057 50.54296875 92.16796875 C51.71592546 96.95516288 55.38440946 99.05321471 59.19018555 101.85522461 C63.99011328 105.51908464 68.0918862 109.8834368 72.3125 114.1875 C73.6128418 115.50137695 73.6128418 115.50137695 74.93945312 116.84179688 C76.58623114 118.50624147 78.23106508 120.17261279 79.87353516 121.84130859 C82.23663375 124.24021994 84.61403066 126.62386971 87 129 C87.268125 128.236875 87.53625 127.47375 87.8125 126.6875 C88.96131822 124.08754297 89.67278944 122.61114577 92 121 C94.1875 121.3125 94.1875 121.3125 96 122 C96.58305225 125.84814487 95.7002883 127.76308635 93.5 130.8125 C92.67780256 131.88364055 91.84795951 132.9491359 91 134 C92.62687336 137.47785682 94.66148112 140.59472382 96.75 143.8125 C104.6451801 156.34055303 109.37667696 169.76156991 109.25 184.625 C109.26160156 185.99785156 109.26160156 185.99785156 109.2734375 187.3984375 C109.25918058 192.3313332 108.93564118 196.3759683 107 201 C105.34385343 201.38218767 103.67542976 201.71395102 102 202 C101.67 201.67 101.34 201.34 101 201 C101.09338801 199.22562779 101.25185106 197.45460286 101.4375 195.6875 C103.11666759 176.79126741 99.55189305 160.29130026 88.1015625 144.671875 C87 143 87 143 87 141 C83.6448318 144.34842414 80.30709389 147.71307964 76.98046875 151.08984375 C75.54205024 152.54302202 74.10266033 153.9952304 72.6628418 155.44702148 C71.68283222 156.43708577 70.70462555 157.42893806 69.72827148 158.42260742 C60.50709342 167.80226234 60.50709342 167.80226234 55.4765625 170.95703125 C51.20674306 174.00456372 50.58113734 177.56722492 49.66601562 182.5703125 C49.50810547 183.61960937 49.35019531 184.66890625 49.1875 185.75 C48.83108688 187.82886054 48.47044814 189.90700129 48.10546875 191.984375 C47.9357959 192.99177734 47.76612305 193.99917969 47.59130859 195.03710938 C46.84945742 198.75432897 45.73432478 202.2787014 44.48168945 205.85253906 C43.92681197 208.32628582 44.11032734 209.6418908 45 212 C45.99 213.2065625 45.99 213.2065625 47 214.4375 C49.11177771 217.14321519 49.46932955 218.68883752 50 222 C66.47990792 220.81145982 82.80050568 219.26777053 94.56640625 206.26953125 C95.27603516 205.64111328 95.27603516 205.64111328 96 205 C98.6875 205.3125 98.6875 205.3125 101 206 C101.40438733 210.46352053 101.40438733 210.46352053 99.63671875 212.80859375 C84.87866681 225.14147483 67.95907482 229.34965507 49 229 C48.79375 229.721875 48.5875 230.44375 48.375 231.1875 C46.60928157 234.79919679 44.54432131 237.15048313 41 239 C39.19395703 239.2583947 37.37970495 239.46274956 35.5625 239.625 C32.06353149 240.1376177 30.51229726 240.41498257 28.15625 243.10546875 C27.04967418 244.98502033 25.97074911 246.88101701 24.9140625 248.7890625 C18.51765601 259.51936074 8.74019879 268.51498024 -3 273 C-5.91015625 272.6953125 -5.91015625 272.6953125 -8 272 C-8 270.35 -8 268.7 -8 267 C-6.83984375 266.47212891 -6.83984375 266.47212891 -5.65625 265.93359375 C8.11298431 259.40684036 17.4380609 249.93118301 24 236 C23.360625 235.29875 22.72125 234.5975 22.0625 233.875 C19.83613898 230.77158767 19.34919057 228.75379861 19 225 C16.36 224.34 13.72 223.68 11 223 C11 221.35 11 219.7 11 218 C14.153368 217.29925156 16.72724974 217 20 217 C21.21181072 215.52617615 22.41953918 214.04818439 23.58203125 212.53515625 C26.62600027 209.23961954 30.57767156 208.09078692 34.9375 207.8125 C35.618125 207.874375 36.29875 207.93625 37 208 C37.6721567 205.00114704 38.33799215 202.00110225 39 199 C39.26425781 197.80890625 39.52851563 196.6178125 39.80078125 195.390625 C40.07277344 194.14796875 40.34476562 192.9053125 40.625 191.625 C40.88539063 190.44164062 41.14578125 189.25828125 41.4140625 188.0390625 C42.09465774 185.02488052 42.09465774 185.02488052 42 182 C40.46279297 183.03060547 40.46279297 183.03060547 38.89453125 184.08203125 C37.53389567 184.99224954 36.17321627 185.90240233 34.8125 186.8125 C34.13896484 187.26431641 33.46542969 187.71613281 32.77148438 188.18164062 C21.93577432 195.42306637 21.93577432 195.42306637 17 195 C16.505 193.02 16.505 193.02 16 191 C20.54494073 187.4709872 25.1967458 184.16966013 30 181 C33.60082115 178.6131439 37.18716919 176.22005533 40.6875 173.6875 C41.62142578 173.01267578 41.62142578 173.01267578 42.57421875 172.32421875 C45.60455801 169.50973928 45.24208499 165.52594686 45.46484375 161.65234375 C45.58182617 159.78545898 45.58182617 159.78545898 45.70117188 157.88085938 C45.85894344 155.24829089 46.01257817 152.61547127 46.16210938 149.98242188 C46.24138672 148.73912109 46.32066406 147.49582031 46.40234375 146.21484375 C46.46929443 145.07136475 46.53624512 143.92788574 46.60522461 142.74975586 C47 140 47 140 49 138 C50.65 138.33 52.3 138.66 54 139 C54 146.92 54 154.84 54 163 C61.27379471 156.5695438 68.24657564 149.97022771 75 143 C75.91072266 142.08154297 75.91072266 142.08154297 76.83984375 141.14453125 C79.43986537 138.34847886 79.43986537 138.34847886 79.9140625 134.6875 C78.72394657 131.18835573 76.64907049 128.97386414 74.125 126.375 C73.63902344 125.8608252 73.15304687 125.34665039 72.65234375 124.81689453 C71.11389226 123.19885092 69.5597248 121.59753044 68 120 C67.48920898 119.4740625 66.97841797 118.948125 66.45214844 118.40625 C60.61434886 112.25114369 60.61434886 112.25114369 54 107 C54 114.59 54 122.18 54 130 C52.35 130.33 50.7 130.66 49 131 C45.92484439 127.92484439 46.52608003 124.20161937 46.375 120.0625 C46.31807983 118.7799231 46.31807983 118.7799231 46.26000977 117.47143555 C46.003134 111.31398948 45.87536326 105.16259433 46 99 C45.4330542 98.72905518 44.8661084 98.45811035 44.28198242 98.17895508 C40.08741639 96.01188978 36.23255276 93.30959914 32.3125 90.6875 C31.43271484 90.11837891 30.55292969 89.54925781 29.64648438 88.96289062 C28.81052734 88.40150391 27.97457031 87.84011719 27.11328125 87.26171875 C26.34798096 86.75600342 25.58268066 86.25028809 24.79418945 85.72924805 C22.56464991 83.58040758 22.32038252 82.02833927 22 79 C24.1171875 78.26171875 24.1171875 78.26171875 27 78 C30.0078125 79.58203125 30.0078125 79.58203125 33.125 81.8125 C34.67574219 82.90498047 34.67574219 82.90498047 36.2578125 84.01953125 C37.16273438 84.67308594 38.06765625 85.32664062 39 86 C39.99 86.66 40.98 87.32 42 88 C41.51256056 80.40266804 39.97983442 73.33829931 38 66 C37.66354259 64.66745158 37.3288672 63.33444192 37 62 C36.43152344 61.99742187 35.86304688 61.99484375 35.27734375 61.9921875 C29.53175015 61.70442822 26.49593484 60.41399417 22.3125 56.47265625 C21 55 21 55 20 53 C17.03 53 14.06 53 11 53 C10.375 50.625 10.375 50.625 10 48 C12 46 12 46 14.9375 45.875 C18.05252461 45.37377509 18.05252461 45.37377509 18.953125 43.30078125 C19.433974 41.91706152 19.87224752 40.51763313 20.26171875 39.10546875 C21.11672812 36.66710869 22.37502847 34.99204499 24 33 C17.5760813 22.37807971 11.69671471 14.69305449 1.16015625 7.95703125 C-1 6 -1 6 -1.37890625 3.32421875 C-1 1 -1 1 0 0 Z " fill="#3866EE" transform="translate(249,98)"/>
<path d="M0 0 C4.70588235 0.70588235 4.70588235 0.70588235 6 2 C6.13343319 3.46889113 6.20345339 4.94364607 6.24609375 6.41796875 C6.27678955 7.33618408 6.30748535 8.25439941 6.33911133 9.20043945 C6.37157959 10.18616943 6.40404785 11.17189941 6.4375 12.1875 C6.57633453 15.20320004 6.72536759 18.21826587 6.87597656 21.23339844 C6.98099848 23.57613143 7.03879873 25.91352121 7.0859375 28.2578125 C7.41098988 33.35777225 7.7977363 36.68178193 11.30859375 40.53125 C13.85853977 42.50889738 16.42835578 44.27426455 19.20019531 45.92480469 C21.76191357 47.45516378 24.24938431 49.09428492 26.74902344 50.72338867 C28.54320365 51.88456231 30.35197784 53.01940275 32.1640625 54.15234375 C35 56 35 56 37 58 C36.625 60.125 36.625 60.125 36 62 C34.31152344 62.68530273 34.31152344 62.68530273 32 63 C29.61816406 61.82836914 29.61816406 61.82836914 27.015625 60.03515625 C26.08105469 59.40029297 25.14648438 58.76542969 24.18359375 58.11132812 C23.21550781 57.43521484 22.24742187 56.75910156 21.25 56.0625 C20.26644531 55.39025391 19.28289062 54.71800781 18.26953125 54.02539062 C15.83839399 52.36135978 13.41591774 50.68601698 11 49 C11.98696861 56.19419221 13.09904557 63.07735364 15.4140625 69.9765625 C16 72 16 72 16 75 C17.19625 75.0825 18.3925 75.165 19.625 75.25 C23.9295484 75.79092555 26.60152298 77.23379778 30 80 C30.4125 80.71027344 30.825 81.42054688 31.25 82.15234375 C32.93652963 84.35692382 32.93652963 84.35692382 36.13671875 84.171875 C37.30847656 84.03265625 38.48023438 83.8934375 39.6875 83.75 C41.45673828 83.55664062 41.45673828 83.55664062 43.26171875 83.359375 C44.61716797 83.18148437 44.61716797 83.18148437 46 83 C46.33 84.65 46.66 86.3 47 88 C40.40977881 90.97206054 40.40977881 90.97206054 37.25 91.1875 C34.88306318 91.75283517 34.88306318 91.75283517 34.1328125 93.6953125 C33.6370044 95.08050833 33.18182367 96.4810908 32.7734375 97.89453125 C31.88541151 100.31193533 30.61769445 102.01139771 29 104 C37.22258038 116.6093168 45.78478181 129.38932782 61 134 C64.98205982 134.83782153 68.9646659 135.48107379 73 136 C73.38218767 137.65614657 73.71395102 139.32457024 74 141 C72.39739862 142.60260138 70.71501415 142.20898122 68.5 142.25 C63.16184159 142.18165942 58.87729726 141.11868409 54 139 C53.29359375 138.69449219 52.5871875 138.38898438 51.859375 138.07421875 C39.43154827 131.927362 29.15114884 120.30229768 23 108 C21.07193659 107.68344336 21.07193659 107.68344336 18.8125 107.625 C12.9261904 107.08308578 9.58879878 104.80350131 5.6875 100.375 C4 98 4 98 3 96 C1.94683594 95.97421875 0.89367187 95.9484375 -0.19140625 95.921875 C-12.68246231 95.48315763 -25.39363902 94.24336848 -36 87 C-35.67 85.35 -35.34 83.7 -35 82 C-30.57425213 82.40234072 -26.91059113 83.36559127 -22.75 84.9375 C-14.42027734 87.85927772 -5.74066031 88.30513579 3 89 C3.061875 88.319375 3.12375 87.63875 3.1875 86.9375 C4.02894156 83.89536512 4.67427112 83.20556887 6.7265625 80.98828125 C8.61910921 78.46829194 9.01743098 77.35881863 8.86230469 74.16552734 C8.17152454 70.78774708 7.31915816 67.50333833 6.375 64.1875 C5.77281544 61.93253851 5.17636775 59.67603644 4.5859375 57.41796875 C4.29686523 56.33692871 4.00779297 55.25588867 3.70996094 54.14208984 C2.86214038 50.38987161 2.56865573 46.75877075 2.49072266 42.91918945 C2.1939761 40.82159387 2.1939761 40.82159387 0.15039062 39.8894043 C-0.55923828 39.59590088 -1.26886719 39.30239746 -2 39 C-4.09325591 37.20102145 -6.11816488 35.38964766 -8.125 33.5 C-8.66253906 33.00113281 -9.20007813 32.50226563 -9.75390625 31.98828125 C-11.86763446 30.02214504 -13.95863889 28.04136111 -16 26 C-15.625 23.875 -15.625 23.875 -15 22 C-11.65781368 21.62007118 -10.33045204 21.76463829 -7.54296875 23.75 C-6.37701172 24.86375 -6.37701172 24.86375 -5.1875 26 C-4.39730469 26.7425 -3.60710937 27.485 -2.79296875 28.25 C-2.20128906 28.8275 -1.60960937 29.405 -1 30 C-1.00523682 29.12674072 -1.01047363 28.25348145 -1.01586914 27.35375977 C-1.03287751 24.12410727 -1.04543369 20.89447755 -1.05493164 17.66479492 C-1.0599708 16.26504772 -1.06680216 14.8653058 -1.07543945 13.46557617 C-1.0875232 11.45754223 -1.09269807 9.44947043 -1.09765625 7.44140625 C-1.10289307 6.23170166 -1.10812988 5.02199707 -1.11352539 3.77563477 C-1 1 -1 1 0 0 Z " fill="#3866EE" transform="translate(162,231)"/>
<path d="M0 0 C0.495 2.475 0.495 2.475 1 5 C-5.43008226 7.81316099 -5.43008226 7.81316099 -7.89453125 8.62109375 C-17.75067745 11.85294617 -25.24125751 17.74873837 -30 27 C-34.72713127 38.17321937 -32.22190269 51.98956483 -28 63 C-25.29957583 68.8861254 -22.18310397 74.55096109 -18.96801758 80.16918945 C-18 82 -18 82 -17 85 C-13.56008637 81.56705132 -10.13861365 78.11694797 -6.7265625 74.65625 C-5.21205164 73.12698284 -3.69657406 71.59868101 -2.18066406 70.07080078 C-1.14532617 69.02538898 -0.11178822 67.97819144 0.91992188 66.92919922 C2.42876968 65.39584465 3.94339212 63.86849401 5.4609375 62.34375 C5.94639038 61.85241577 6.43184326 61.36108154 6.93200684 60.8548584 C9.48210022 58.32267267 11.92533025 56.31559542 15.0546875 54.5625 C19.73784618 50.48802773 19.87321958 45.44715403 20.75 39.5 C21.11112079 37.2590022 21.48062211 35.01933526 21.859375 32.78125 C22.00858398 31.79189453 22.15779297 30.80253906 22.31152344 29.78320312 C23.06267143 26.74664741 24.27035921 24.58914103 26 22 C27.98 22.495 27.98 22.495 30 23 C31.34146152 26.70456592 30.62042409 29.20890534 29.5625 32.9375 C28.48339185 36.76518855 27.81659762 40.01650031 28 44 C28.45850342 43.66154053 28.91700684 43.32308105 29.3894043 42.97436523 C31.47772032 41.44627128 33.58206401 39.94190639 35.6875 38.4375 C36.40873047 37.90447266 37.12996094 37.37144531 37.87304688 36.82226562 C43.3241843 32.96415467 43.3241843 32.96415467 47.01953125 33.16015625 C47.67308594 33.43730469 48.32664062 33.71445313 49 34 C49.23510742 36.31420898 49.23510742 36.31420898 49 39 C47.42700195 40.60571289 47.42700195 40.60571289 45.23828125 41.97265625 C44.05395508 42.73352539 44.05395508 42.73352539 42.84570312 43.50976562 C42.00974609 44.02216797 41.17378906 44.53457031 40.3125 45.0625 C38.68234855 46.09308509 37.05340955 47.12559089 35.42578125 48.16015625 C34.27070068 48.88549561 34.27070068 48.88549561 33.09228516 49.62548828 C30.7975359 51.08583898 30.7975359 51.08583898 28.04296875 53.37109375 C26 55 26 55 24 55 C24.01160156 55.6084375 24.02320313 56.216875 24.03515625 56.84375 C24.09607631 62.76169895 23.93895223 68.65406558 23.625 74.5625 C23.59414307 75.26503906 23.56328613 75.96757812 23.53149414 76.69140625 C23.23350621 81.76649379 23.23350621 81.76649379 21 84 C19.35 83.67 17.7 83.34 16 83 C16 76.4 16 69.8 16 63 C8.72620529 69.4304562 1.75342436 76.02977229 -5 83 C-5.91072266 83.91845703 -5.91072266 83.91845703 -6.83984375 84.85546875 C-8.41602059 86.47293605 -8.41602059 86.47293605 -10 89 C-9.74875769 94.81722585 -5.75657828 97.63967677 -1.8359375 101.5 C0 104 0 104 -0.2265625 106.8125 C-0.60941406 107.8953125 -0.60941406 107.8953125 -1 109 C-4.45899743 108.70613827 -5.81948459 108.17017492 -8.38671875 105.75 C-9.14597656 104.8425 -9.90523437 103.935 -10.6875 103 C-13.44820962 99.50290207 -13.44820962 99.50290207 -17 97 C-17.26167969 97.71285156 -17.52335937 98.42570312 -17.79296875 99.16015625 C-19.05763419 102.13559888 -20.59886448 104.69796295 -22.3125 107.4375 C-30.37356455 121.03528739 -34.84862614 137.00389669 -30.98046875 152.73828125 C-29.21855952 156.80260574 -26.38314702 160.11992839 -23.58203125 163.51953125 C-22 166 -22 166 -22.26171875 168.32421875 C-22.50535156 168.87722656 -22.74898437 169.43023437 -23 170 C-24.32 170.33 -25.64 170.66 -27 171 C-37.84957106 159.54090248 -39.82713314 149.80805796 -39.53125 134.3203125 C-38.74576403 120.04628698 -31.88484455 107.13850803 -23.6875 95.71484375 C-21.6480598 92.96656088 -21.6480598 92.96656088 -22 89 C-23.30989602 86.63054365 -24.6593681 84.39332302 -26.125 82.125 C-35.59429838 66.84779075 -42.58503031 49.68814979 -39.3125 31.4375 C-36.27558308 19.45854994 -28.14606831 10.70633117 -17.77734375 4.4765625 C-11.97341162 1.3909277 -6.65261431 -0.51173956 0 0 Z " fill="#3865EC" transform="translate(145,142)"/>
<path d="M0 0 C1.20785156 -0.01417969 2.41570312 -0.02835937 3.66015625 -0.04296875 C6.72492498 0.17255134 8.37745415 0.57230898 10.9375 2.1875 C10.6075 3.8375 10.2775 5.4875 9.9375 7.1875 C9.00550781 7.12949219 8.07351562 7.07148437 7.11328125 7.01171875 C-6.20237334 6.54048729 -16.25191586 9.6372442 -26.4921875 18.59375 C-33.07361945 25.235195 -45.0625 38.09194233 -45.0625 48.1875 C-43.88816406 48.41824219 -42.71382812 48.64898437 -41.50390625 48.88671875 C-33.18764431 50.55710135 -24.95408831 52.35713502 -16.8125 54.75 C-16.13517822 54.94746826 -15.45785645 55.14493652 -14.76000977 55.34838867 C-11.49496182 56.33468409 -8.36134872 57.45727653 -5.25 58.84375 C0.24339171 61.1595916 4.0713635 59.15094573 9.375 57.125 C13.85599963 55.42932118 17.18371486 54.76494132 21.9375 55.1875 C22.4325 57.6625 22.4325 57.6625 22.9375 60.1875 C21.1472939 60.85807887 19.35528511 61.5238469 17.5625 62.1875 C16.56476563 62.55875 15.56703125 62.93 14.5390625 63.3125 C11.9375 64.1875 11.9375 64.1875 9.9375 64.1875 C9.9375 64.8475 9.9375 65.5075 9.9375 66.1875 C11.113125 66.5175 12.28875 66.8475 13.5 67.1875 C18.22024344 68.74834727 22.50274311 70.91533533 26.875 73.25 C27.53765869 73.60255859 28.20031738 73.95511719 28.88305664 74.31835938 C31.53537553 75.75954721 33.79178459 77.04178459 35.9375 79.1875 C35.5625 81.3125 35.5625 81.3125 34.9375 83.1875 C32.52824418 84.05068393 31.32611447 84.32759323 28.88208008 83.4465332 C28.16431396 83.04781006 27.44654785 82.64908691 26.70703125 82.23828125 C25.90330078 81.80193359 25.09957031 81.36558594 24.27148438 80.91601562 C23.02334961 80.21508789 23.02334961 80.21508789 21.75 79.5 C14.55057515 75.53140338 14.55057515 75.53140338 7.19921875 71.85546875 C6.52205811 71.53215576 5.84489746 71.20884277 5.1472168 70.87573242 C-0.21239988 69.20644069 -4.05765491 70.31407793 -8.94140625 72.77734375 C-10.02744141 73.31423828 -11.11347656 73.85113281 -12.23242188 74.40429688 C-13.35197266 74.97212891 -14.47152344 75.53996094 -15.625 76.125 C-17.8528957 77.24342154 -20.08327901 78.3569048 -22.31640625 79.46484375 C-23.29939697 79.96234131 -24.2823877 80.45983887 -25.29516602 80.97241211 C-27.93022213 82.12941911 -30.21015778 82.84142635 -33.0625 83.1875 C-34.0625 82.1875 -34.0625 82.1875 -34.125 79.625 C-34.104375 78.820625 -34.08375 78.01625 -34.0625 77.1875 C-30.6269212 75.37134089 -27.18871865 73.5602061 -23.75 71.75 C-22.77353516 71.23373047 -21.79707031 70.71746094 -20.79101562 70.18554688 C-19.85322266 69.69248047 -18.91542969 69.19941406 -17.94921875 68.69140625 C-17.08514404 68.23580322 -16.22106934 67.7802002 -15.33081055 67.31079102 C-13.0625 66.1875 -13.0625 66.1875 -10.0625 65.1875 C-23.05496915 60.22289797 -36.41878264 57.70571727 -50.0625 55.1875 C-50.25585938 55.88617188 -50.44921875 56.58484375 -50.6484375 57.3046875 C-50.90882813 58.21476562 -51.16921875 59.12484375 -51.4375 60.0625 C-51.82035156 61.41988281 -51.82035156 61.41988281 -52.2109375 62.8046875 C-53.0625 65.1875 -53.0625 65.1875 -55.0625 67.1875 C-57.1875 66.8125 -57.1875 66.8125 -59.0625 66.1875 C-59.47223093 60.58784391 -58.50961806 58.89744215 -56.0625 53.1875 C-63.9825 53.1875 -71.9025 53.1875 -80.0625 53.1875 C-80.3925 51.5375 -80.7225 49.8875 -81.0625 48.1875 C-80.0625 47.1875 -80.0625 47.1875 -77.47045898 47.07397461 C-76.34454346 47.07921143 -75.21862793 47.08444824 -74.05859375 47.08984375 C-72.84365234 47.09306641 -71.62871094 47.09628906 -70.37695312 47.09960938 C-69.09755859 47.10798828 -67.81816406 47.11636719 -66.5 47.125 C-65.21673828 47.12951172 -63.93347656 47.13402344 -62.61132812 47.13867188 C-59.42833978 47.15050455 -56.24544238 47.16698932 -53.0625 47.1875 C-52.76682129 46.26549805 -52.47114258 45.34349609 -52.16650391 44.39355469 C-46.38110518 27.59261349 -32.91927743 11.3098836 -17.109375 3.18359375 C-11.39290591 0.61118266 -6.22637951 0.03329615 0 0 Z " fill="#3865EC" transform="translate(232.0625,92.8125)"/>
<path d="M0 0 C2.24609375 0.71614583 4.4921875 1.43229167 6.73828125 2.1484375 C16.06198497 4.58264997 25.05755106 5.34633305 34.67773438 5.31567383 C36.73361918 5.31252509 38.78804286 5.33602485 40.84375 5.36132812 C50.24908836 5.40524055 58.84538492 4.18310438 68 2 C68.89162842 1.78875488 69.78325684 1.57750977 70.7019043 1.35986328 C72.47287191 0.92625955 74.23769069 0.46755145 76 0 C76 4.95 76 9.9 76 15 C63.66776412 21.16611794 51.22010217 22.49748971 37.5625 22.375 C36.27279297 22.38660156 34.98308594 22.39820313 33.65429688 22.41015625 C22.26222326 22.37592869 9.58581229 21.78020869 0 15 C0 10.05 0 5.1 0 0 Z " fill="#3967F0" transform="translate(194,230)"/>
<path d="M0 0 C1.175625 0.268125 2.35125 0.53625 3.5625 0.8125 C4.3978125 0.99167969 5.233125 1.17085937 6.09375 1.35546875 C8.10215981 1.80088222 10.10217595 2.28528544 12.09375 2.80078125 C33.41851517 7.86781442 54.94888104 4.80129459 76 0 C76.93046154 12.88861538 76.93046154 12.88861538 73.75 16.6875 C52.68943872 24.05869645 24.93933587 25.67652039 4 17 C1.73828125 15.8515625 1.73828125 15.8515625 0 14 C-0.390625 10.64453125 -0.390625 10.64453125 -0.25 6.8125 C-0.21390625 5.54019531 -0.1778125 4.26789063 -0.140625 2.95703125 C-0.09421875 1.98121094 -0.0478125 1.00539062 0 0 Z " fill="#3867F0" transform="translate(194,208)"/>
<path d="M0 0 C0.71542969 0.19335938 1.43085938 0.38671875 2.16796875 0.5859375 C24.25607043 6.35798995 51.34953278 8.97226569 73 0 C73.99 0 74.98 0 76 0 C76.13501894 2.43934225 76.23403897 4.87124104 76.3125 7.3125 C76.35439453 8.00279297 76.39628906 8.69308594 76.43945312 9.40429688 C76.48828125 11.42578125 76.48828125 11.42578125 76 15 C66.01263602 23.91265691 44.16347255 22.57724454 31.40332031 22.14501953 C27.05041261 21.88235931 22.75078832 21.31724731 18.4375 20.6875 C17.20688843 20.51105957 17.20688843 20.51105957 15.95141602 20.33105469 C3.31451406 18.31451406 3.31451406 18.31451406 0 15 C-0.07313567 12.46950598 -0.09247527 9.96695163 -0.0625 7.4375 C-0.05798828 6.72658203 -0.05347656 6.01566406 -0.04882812 5.28320312 C-0.03700864 3.52209987 -0.01907263 1.76103964 0 0 Z " fill="#3867F0" transform="translate(194,253)"/>
<path d="M0 0 C0.72192383 2.1027832 0.72192383 2.1027832 1 4 C-0.76715931 4.63531382 -2.53902018 5.25754959 -4.3125 5.875 C-5.79169922 6.39707031 -5.79169922 6.39707031 -7.30078125 6.9296875 C-17.05805627 9.75280614 -26.49301545 10.38656179 -36.625 10.375 C-37.9435498 10.37483887 -39.26209961 10.37467773 -40.62060547 10.37451172 C-51.7062703 10.24508587 -63.07888849 9.47882277 -73 4 C-72.9375 2.1875 -72.9375 2.1875 -72 0 C-52.13034972 -9.97298708 -20.0763718 -9.29829761 0 0 Z " fill="#3967F1" transform="translate(268,197)"/>
<path d="M0 0 C6.70464263 0.59862881 12.12311269 3.8320422 18.01171875 6.84960938 C24.20860721 10.01298381 24.20860721 10.01298381 31 10 C34.62239291 8.52578786 38.08507612 6.78576938 41.5625 5 C43.41337262 4.05345837 45.26872 3.11560433 47.12890625 2.1875 C47.94431885 1.76855469 48.75973145 1.34960938 49.59985352 0.91796875 C52.23155213 -0.08856027 54.20666413 -0.17394285 57 0 C57.495 2.475 57.495 2.475 58 5 C55.23116804 6.48293582 52.4596027 7.96068862 49.6875 9.4375 C48.50897461 10.06881836 48.50897461 10.06881836 47.30664062 10.71289062 C46.54931641 11.11572266 45.79199219 11.51855469 45.01171875 11.93359375 C44.31522217 12.30540771 43.61872559 12.67722168 42.90112305 13.06030273 C41 14 41 14 38 15 C38.85464844 15.27714844 39.70929688 15.55429687 40.58984375 15.83984375 C41.69457031 16.20207031 42.79929688 16.56429688 43.9375 16.9375 C45.03964844 17.29714844 46.14179688 17.65679687 47.27734375 18.02734375 C50 19 50 19 51 20 C51.04063832 21.66617115 51.042721 23.33388095 51 25 C45.44670402 26.90151769 41.09959546 24.30454848 36.05859375 22.09375 C30.50687302 19.80961347 26.54402657 19.81661396 20.7421875 21.75390625 C20.12601563 22.02074219 19.50984375 22.28757812 18.875 22.5625 C15.78686312 23.80015797 13.36935745 24.31587726 10 24 C9.67 22.35 9.34 20.7 9 19 C11.97 17.68 14.94 16.36 18 15 C16.19402344 14.16855469 16.19402344 14.16855469 14.3515625 13.3203125 C12.77593508 12.5887712 11.20042005 11.85698777 9.625 11.125 C8.8309375 10.76019531 8.036875 10.39539063 7.21875 10.01953125 C6.45820313 9.66503906 5.69765625 9.31054688 4.9140625 8.9453125 C3.8614624 8.45828857 3.8614624 8.45828857 2.78759766 7.96142578 C1 7 1 7 -1 5 C-0.625 2.375 -0.625 2.375 0 0 Z " fill="#3765EB" transform="translate(204,293)"/>
<path d="M0 0 C0.66 0.33 1.32 0.66 2 1 C-1.3 4.3 -4.6 7.6 -8 11 C-8 7.0234755 -6.61988497 5.9109833 -4 3 C-1.75 1.1875 -1.75 1.1875 0 0 Z " fill="#070C1D" transform="translate(126,155)"/>
</svg>
